<svg width="4719" height="3399" viewBox="0 0 4719 3399" fill="none" xmlns="http://www.w3.org/2000/svg">
<path d="M502.884 3211H367.02L285.354 3075.87C279.251 3065.61 273.392 3056.46 267.776 3048.4C262.161 3040.35 256.424 3033.51 250.564 3027.89C244.949 3022.04 238.968 3017.64 232.62 3014.71C226.517 3011.54 219.803 3009.95 212.479 3009.95H180.618V3211H62.332V2685.85H249.832C377.273 2685.85 440.994 2733.46 440.994 2828.68C440.994 2846.99 438.187 2863.95 432.571 2879.58C426.956 2894.96 419.021 2908.88 408.768 2921.33C398.514 2933.78 386.062 2944.52 371.414 2953.55C357.01 2962.59 340.896 2969.67 323.074 2974.79V2976.26C330.887 2978.7 338.455 2982.73 345.779 2988.34C353.104 2993.71 360.184 3000.06 367.02 3007.39C373.855 3014.71 380.325 3022.65 386.429 3031.19C392.776 3039.49 398.514 3047.67 403.641 3055.73L502.884 3211ZM180.618 2774.48V2920.59H231.888C257.278 2920.59 277.664 2913.27 293.045 2898.62C308.67 2883.73 316.482 2865.3 316.482 2843.32C316.482 2797.43 289.017 2774.48 234.085 2774.48H180.618ZM979.764 3211H664.822V2685.85H967.679V2782.17H783.108V2898.99H954.861V2994.94H783.108V3115.05H979.764V3211ZM1491.43 3211H1176.49V2685.85H1479.35V2782.17H1294.78V2898.99H1466.53V2994.94H1294.78V3115.05H1491.43V3211ZM2000.91 3211H1688.16V2685.85H1806.45V3115.05H2000.91V3211ZM2504.23 3211V2685.85H2695.39C2753.98 2685.85 2799.03 2696.6 2830.52 2718.08C2862.01 2739.56 2877.76 2769.84 2877.76 2808.9C2877.76 2837.22 2868.12 2862 2848.83 2883.24C2829.79 2904.48 2805.37 2919.25 2775.59 2927.55V2929.02C2812.94 2933.66 2842.73 2947.45 2864.94 2970.4C2887.41 2993.35 2898.64 3021.3 2898.64 3054.26C2898.64 3102.36 2881.42 3140.57 2847 3168.89C2812.58 3196.96 2765.58 3211 2706.01 3211H2504.23ZM2622.51 2773.01V2897.52H2674.51C2698.93 2897.52 2718.09 2891.66 2732.01 2879.95C2746.17 2867.98 2753.25 2851.62 2753.25 2830.87C2753.25 2792.3 2724.44 2773.01 2666.82 2773.01H2622.51ZM2622.51 2985.41V3123.84H2686.6C2713.94 3123.84 2735.31 3117.49 2750.69 3104.8C2766.31 3092.1 2774.12 3074.77 2774.12 3052.8C2774.12 3031.8 2766.43 3015.32 2751.05 3003.36C2735.92 2991.4 2714.68 2985.41 2687.33 2985.41H2622.51ZM3526.03 2983.58C3526.03 3141.3 3452.54 3220.16 3305.57 3220.16C3162.99 3220.16 3091.7 3143.13 3091.7 2989.08V2685.85H3210.35V2990.54C3210.35 3075.5 3243.56 3117.98 3309.96 3117.98C3375.15 3117.98 3407.74 3076.97 3407.74 2994.94V2685.85H3526.03V2983.58ZM4131.08 3211H3708.11V3142.88L3977.27 2782.17H3727.52V2685.85H4130.35V2752.14L3867.04 3115.05H4131.08V3211ZM4699.15 3211H4276.17V3142.88L4545.34 2782.17H4295.58V2685.85H4698.42V2752.14L4435.11 3115.05H4699.15V3211Z" fill="url(#paint0_linear_55_20)"/>
<path fill-rule="evenodd" clip-rule="evenodd" d="M928.778 0.75C703.311 0.75 520 176.425 520 392.5V1959.5C520 2175.57 703.311 2351.25 928.778 2351.25H2563.89C2789.36 2351.25 2972.67 2175.57 2972.67 1959.5V392.5C2972.67 176.425 2789.36 0.75 2563.89 0.75H928.778ZM4199 392.5C4199 320.271 4157.48 254.163 4091.06 219.885C4023.99 185.607 3943.51 189.892 3880.92 229.679L3267.75 621.429L3177.06 679.579V784.25V1567.75V1672.42L3267.75 1730.57L3880.92 2122.32C3944.15 2162.72 4024.63 2166.39 4091.06 2132.11C4157.48 2097.84 4199 2031.73 4199 1959.5V392.5ZM2204.62 1256.53C2258.9 1216.57 2258.9 1135.43 2204.62 1095.47L1519.29 590.922C1453.26 542.31 1360 589.457 1360 671.452V1680.55C1360 1762.54 1453.26 1809.69 1519.29 1761.08L2204.62 1256.53ZM2563 217H901C818.157 217 751 284.157 751 367V1985C751 2067.84 818.157 2135 901 2135H2563C2645.84 2135 2713 2067.84 2713 1985V367C2713 284.157 2645.84 217 2563 217ZM901 167C790.543 167 701 256.543 701 367V1985C701 2095.46 790.543 2185 901 2185H2563C2673.46 2185 2763 2095.46 2763 1985V367C2763 256.543 2673.46 167 2563 167H901ZM3796.49 1075.27L3797.18 782.88L3645.93 1033.12L3402.32 964.908L3552.46 1187.77L3401.21 1438.01L3645.25 1325.51L3795.39 1548.37L3796.07 1255.98L4040.11 1143.48L3796.49 1075.27Z" fill="url(#paint1_linear_55_20)"/>
<defs>
<linearGradient id="paint0_linear_55_20" x1="-191" y1="786.047" x2="-159.507" y2="3805.28" gradientUnits="userSpaceOnUse">
<stop offset="0.45" stop-color="#13C7C7"/>
<stop offset="1" stop-color="#021A1A"/>
</linearGradient>
<linearGradient id="paint1_linear_55_20" x1="2359.5" y1="0.75" x2="2359.5" y2="2351.25" gradientUnits="userSpaceOnUse">
<stop stop-color="#18C4C4"/>
<stop offset="1" stop-color="#021A1A"/>
</linearGradient>
</defs>
</svg>
