<svg width="3679" height="2352" viewBox="0 0 3679 2352" fill="none" xmlns="http://www.w3.org/2000/svg">
<path fill-rule="evenodd" clip-rule="evenodd" d="M408.778 0.75C183.311 0.75 0 176.425 0 392.5V1959.5C0 2175.57 183.311 2351.25 408.778 2351.25H2043.89C2269.36 2351.25 2452.67 2175.57 2452.67 1959.5V392.5C2452.67 176.425 2269.36 0.75 2043.89 0.75H408.778ZM3679 392.5C3679 320.271 3637.48 254.163 3571.06 219.885C3503.99 185.607 3423.51 189.892 3360.92 229.679L2747.75 621.429L2657.06 679.579V784.25V1567.75V1672.42L2747.75 1730.57L3360.92 2122.32C3424.15 2162.72 3504.63 2166.39 3571.06 2132.11C3637.48 2097.84 3679 2031.73 3679 1959.5V392.5ZM1684.62 1256.53C1738.9 1216.57 1738.9 1135.43 1684.62 1095.47L999.287 590.922C933.256 542.31 840 589.457 840 671.452V1680.55C840 1762.54 933.256 1809.69 999.287 1761.08L1684.62 1256.53ZM2043 217H381C298.157 217 231 284.157 231 367V1985C231 2067.84 298.157 2135 381 2135H2043C2125.84 2135 2193 2067.84 2193 1985V367C2193 284.157 2125.84 217 2043 217ZM381 167C270.543 167 181 256.543 181 367V1985C181 2095.46 270.543 2185 381 2185H2043C2153.46 2185 2243 2095.46 2243 1985V367C2243 256.543 2153.46 167 2043 167H381ZM3276.49 1075.27L3277.18 782.88L3125.93 1033.12L2882.32 964.908L3032.46 1187.77L2881.21 1438.01L3125.25 1325.51L3275.39 1548.37L3276.07 1255.98L3520.11 1143.48L3276.49 1075.27Z" fill="url(#paint0_linear_54_69)"/>
<defs>
<linearGradient id="paint0_linear_54_69" x1="1839.5" y1="0.75" x2="1839.5" y2="2351.25" gradientUnits="userSpaceOnUse">
<stop stop-color="#18C4C4"/>
<stop offset="1" stop-color="#021A1A"/>
</linearGradient>
</defs>
</svg>
